<?xml version="1.0" encoding="iso-8859-1"?>
<!-- Generator: Adobe Illustrator 19.0.0, SVG Export Plug-In . SVG Version: 6.00 Build 0)  -->
<svg version="1.1" id="Layer_1" xmlns="http://www.w3.org/2000/svg" xmlns:xlink="http://www.w3.org/1999/xlink" x="0px" y="0px"
	 viewBox="0 0 352.372 352.372" style="enable-background:new 0 0 352.372 352.372;" xml:space="preserve">
<g>
	<g>
		<path d="M178.895,11.869V2.838c0-1.72-1.118-2.838-2.838-2.838s-2.838,1.118-2.838,2.838v9.031
			C116.11,12.901,65.968,43.175,37.07,88.243c-0.774,0.43-1.29,1.204-1.376,2.236c-15.223,24.599-24.082,53.411-24.512,84.287
			c-0.172,0.43-0.344,0.86-0.344,1.376c0,0.516,0.086,0.946,0.258,1.29c0.258,89.791,72.59,162.983,162.124,164.704v7.397
			c0,1.72,1.118,2.838,2.838,2.838s2.838-1.118,2.838-2.838v-7.397c89.878-1.377,162.639-74.913,162.639-165.134
			S268.772,13.245,178.895,11.869z M99.339,173.39H49.712c0.516-29.156,7.311-56.421,18.663-79.815h41.542
			C103.467,117.056,99.597,144.32,99.339,173.39z M99.424,178.981c0.172,28.984,3.784,56.163,10.063,79.814H67.774
			c-11.181-23.48-17.718-50.744-17.976-79.814H99.424z M71.301,87.899c18.406-34.317,47.046-59.173,80.416-67.43
			c-16.599,12.127-30.79,36.209-40.165,67.43H71.301z M119.12,28.038C96.93,41.37,78.181,62.183,65.021,87.899H44.036
			C62.184,60.979,88.416,39.908,119.12,28.038z M40.424,93.576H62.27c-11.095,23.48-17.546,50.744-18.062,79.815H16.858
			C17.46,144.148,25.975,116.884,40.424,93.576z M16.772,178.981h27.35c0.258,28.984,6.536,56.163,17.287,79.814H39.306
			C25.372,235.316,17.116,208.051,16.772,178.981z M42.918,264.386h21.243c13.245,26.49,32.339,47.906,54.959,61.581
			C87.728,313.84,61.152,292.08,42.918,264.386z M70.526,264.386h40.509c9.289,31.995,23.652,56.765,40.595,69.064
			C117.916,324.935,88.932,299.477,70.526,264.386z M173.219,336.374c-23.566-2.322-44.208-30.361-56.507-71.988h56.507V336.374z
			 M173.219,258.795h-58.055c-6.279-23.394-9.977-50.658-10.149-79.814h68.204V258.795z M173.219,173.39h-68.204
			c0.258-29.156,4.128-56.421,10.493-79.815h57.711V173.39z M173.219,87.899h-56.077c12.299-40.681,32.683-68.117,56.077-70.354
			V87.899z M335.858,173.304h-27.35c-0.516-29.07-7.052-56.248-18.062-79.815h21.846
			C326.655,116.884,335.17,144.148,335.858,173.304z M253.291,178.895h49.626c-0.258,29.156-6.794,56.421-17.976,79.814h-41.799
			C249.421,235.144,253.119,207.879,253.291,178.895z M253.205,173.304c-0.258-29.07-4.128-56.248-10.579-79.815h41.455
			c11.439,23.394,18.234,50.658,18.749,79.815H253.205z M308.594,87.899h-20.986c-13.159-25.716-31.909-46.53-54.099-59.861
			C264.214,39.908,290.446,60.979,308.594,87.899z M281.243,87.899h-40.165c-9.375-31.22-23.566-55.302-40.165-67.43
			C234.197,28.812,262.838,53.582,281.243,87.899z M178.809,17.545c23.48,1.892,44.122,29.329,56.593,70.354h-56.593V17.545z
			 M178.809,93.49h58.226c6.45,23.308,10.235,50.572,10.579,79.814h-68.805V93.49z M178.809,258.709v-79.814h68.806
			c-0.172,29.156-3.87,56.421-10.149,79.814H178.809z M178.895,264.386h57.023c-12.385,41.972-33.285,70.182-57.023,72.074V264.386z
			 M241.594,264.386h40.595c-18.32,35.177-47.39,60.635-81.191,69.15C217.857,321.151,232.22,296.466,241.594,264.386z
			 M233.166,326.053c22.706-13.589,41.885-35.177,55.216-61.667h21.33C291.393,292.166,264.731,314.012,233.166,326.053z
			 M313.324,258.795H291.22c10.751-23.652,17.03-50.83,17.288-79.814h27.35C335.514,208.137,327.343,235.402,313.324,258.795z"/>
	</g>
</g>
<g>
</g>
<g>
</g>
<g>
</g>
<g>
</g>
<g>
</g>
<g>
</g>
<g>
</g>
<g>
</g>
<g>
</g>
<g>
</g>
<g>
</g>
<g>
</g>
<g>
</g>
<g>
</g>
<g>
</g>
</svg>
